<?xml version="1.0"?>
<svg xmlns="http://www.w3.org/2000/svg" id="Layer_1" data-name="Layer 1" viewBox="0 0 512 512" width="512" height="512"><path d="M256,486a11,11,0,1,0,11,11A11.013,11.013,0,0,0,256,486Zm0,12a1,1,0,1,1,1-1A1,1,0,0,1,256,498Z"/><path d="M182,474.165V502a6,6,0,0,0,12,0V474.165a6,6,0,1,0-12,0Z"/><path d="M326,502V476.165a6,6,0,1,0-12,0V502a6,6,0,0,0,12,0Z"/><path d="M256,454a11,11,0,1,0,11,11A11.013,11.013,0,0,0,256,454Zm0,12a1,1,0,1,1,1-1A1,1,0,0,1,256,466Z"/><path d="M376.842,106.635a16.484,16.484,0,0,0,4.774,14.18,86.079,86.079,0,0,1,22.762,84.633A6,6,0,0,0,414.85,211.3a98.359,98.359,0,0,0-9.382-112.56,16.239,16.239,0,0,0-20.025-4.1A16.047,16.047,0,0,0,376.842,106.635Zm11.867,1.783a4.129,4.129,0,0,1,2.239-3.116,4.218,4.218,0,0,1,1.943-.474,4.386,4.386,0,0,1,3.365,1.6,86.276,86.276,0,0,1,19.877,50.353,98.166,98.166,0,0,0-26.121-44.544A4.39,4.39,0,0,1,388.709,108.418Z"/><path d="M402.381,219.933a7,7,0,0,0,.292,13.993c.1,0,.192,0,.289-.006a7,7,0,1,0-.581-13.987Z"/><path d="M271.179,252.827a89.014,89.014,0,0,0,12.528.8c14.6,0,38.679-3,54.375-20.569,22.966-25.708,17.654-71.649,17.417-73.592a6,6,0,0,0-5.048-5.2c-1.769-.272-43.585-6.331-66.9,19.773-22.966,25.708-17.654,71.648-17.417,73.592A6,6,0,0,0,271.179,252.827Zm21.318-70.8c14.913-16.693,40.892-17,51.469-16.341.654,11.68.667,42.023-14.834,59.375-14.911,16.691-40.887,17-51.461,16.342C277.03,229.708,277.044,199.325,292.5,182.026Z"/><path d="M245.869,247.624c.237-1.944,5.549-47.884-17.417-73.592-23.319-26.1-65.134-20.044-66.9-19.773a6,6,0,0,0-5.048,5.2c-.237,1.943-5.549,47.884,17.417,73.592,15.7,17.571,39.773,20.569,54.375,20.569a89.223,89.223,0,0,0,12.528-.8A6,6,0,0,0,245.869,247.624Zm-11.54-6.223c-10.581.655-36.554.347-51.461-16.341-15.455-17.3-15.467-47.685-14.827-59.375,10.581-.655,36.554-.347,51.462,16.341C234.957,199.326,234.97,229.711,234.329,241.4Z"/><path d="M263.524,321a6,6,0,0,0,0-12H248.476a6,6,0,0,0,0,12Z"/><path d="M190.316,116.127a5.978,5.978,0,0,0,3.8-1.358,109.683,109.683,0,0,1,23.012-14.482c2.641-1.236,5.378-2.388,8.133-3.423a6,6,0,0,0-4.22-11.233c-3.048,1.144-6.076,2.419-9,3.788a121.77,121.77,0,0,0-25.53,16.066,6,6,0,0,0,3.806,10.642Z"/><path d="M167.334,135.125a6,6,0,0,0,8.4-1.181c1.718-2.281,3.54-4.519,5.415-6.651a6,6,0,1,0-9.011-7.924c-2.074,2.359-4.089,4.833-5.989,7.354A6,6,0,0,0,167.334,135.125Z"/><path d="M255.954,4c-113.768,0-206.3,92.823-206.3,206.918A207.2,207.2,0,0,0,160,393.9v6.492a33.831,33.831,0,0,0-29,33.777V502a6,6,0,0,0,12,0V434.165a22.188,22.188,0,0,1,18.356-21.884,5.667,5.667,0,0,0,.721.649,160.683,160.683,0,0,0,183.813,2.221,5.876,5.876,0,0,0,2.092-2.588A22.223,22.223,0,0,1,365,434.165V502a6,6,0,0,0,12,0V434.165A33.866,33.866,0,0,0,348,400.4v-4.444A206.891,206.891,0,0,0,462.234,210.918C462.234,96.823,369.723,4,255.954,4ZM180,410.512a42.415,42.415,0,0,1-8-5.51V377.843a42.928,42.928,0,0,0,8,4.957Zm20,9.724c-3-1.052-5-2.184-8-3.388v-28.3c3,1.1,5,2.125,8,3.085Zm20,6.365c-3-.641-5-1.337-8-2.118V395.532c3,.718,5,1.353,8,1.943ZM167.512,268.672c-28.137-29.422-39.364-71.225-30.03-111.824a120.278,120.278,0,0,1,24.4-49.8A109.217,109.217,0,0,1,208.393,74.1a136.965,136.965,0,0,1,95.214,0,109.217,109.217,0,0,1,46.513,32.951,120.278,120.278,0,0,1,24.4,49.8c9.334,40.6-1.893,82.4-30.03,111.824l-79.075,82.683h0a13.026,13.026,0,0,1-18.826,0ZM222,343.4l15.728,16.25a25.181,25.181,0,0,0,18.179,7.9A24.682,24.682,0,0,0,274.039,360h.21L290,343.4v42.038a149.612,149.612,0,0,1-68,.241Zm18,86.677c-3-.276-6-.626-8-1.037V399.72c2,.38,5,.706,8,.961Zm18,.807c-1,.018-1.486.051-2.434.051-1.327,0-2.566-.039-3.566-.074V401.405c1,.032,2.239.067,3.566.067.948,0,1.434-.03,2.434-.046Zm19-1.518c-2,.329-4,.594-7,.82V400.78c3-.209,5-.457,7-.761Zm19-4.024c-2,.636-5,1.219-7,1.747V397.921c2-.487,5-1.02,7-1.606Zm20-7.129c-3,1.135-5,2.214-8,3.2V392.705c3-.9,5-1.882,8-2.918Zm20-11.144a42.343,42.343,0,0,1-8,5.167V384.354a43.207,43.207,0,0,0,8-4.66Zm83.389-90.87A194.513,194.513,0,0,1,348,382.424V369.559a6.058,6.058,0,0,0,.048-1.266l-.047-.64a5.936,5.936,0,0,0-9.162-3.7A148.035,148.035,0,0,1,302,382.04V330.851l51.347-53.885c30.938-32.35,43.2-78.259,32.959-122.807-9.785-42.562-39.2-76.695-78.519-91.307a148.973,148.973,0,0,0-103.574,0c-39.323,14.612-68.641,48.745-78.426,91.307-10.241,44.548,1.928,90.457,32.866,122.807L210,330.851v51.517a147.982,147.982,0,0,1-39.823-19.839,6,6,0,0,0-9.426.44l.08.142c-.983,1.38-1.831,3.034-.831,4.577v12.5A194.829,194.829,0,0,1,61.765,210.918C61.765,103.44,148.849,16,256,16s194.326,87.44,194.326,194.918A194.845,194.845,0,0,1,419.389,316.2Z"/></svg>
